<mxfile host="app.diagrams.net" modified="2023-12-07T08:27:22.181Z" agent="Mozilla/5.0 (Windows NT 10.0; Win64; x64) AppleWebKit/537.36 (KHTML, like Gecko) Chrome/119.0.0.0 Safari/537.36" etag="mxckc8aDE-rpl_UapWND" version="22.1.7" type="github">
  <diagram name="Page-1" id="c7558073-3199-34d8-9f00-42111426c3f3">
    <mxGraphModel dx="1304" dy="786" grid="1" gridSize="10" guides="1" tooltips="1" connect="1" arrows="1" fold="1" page="1" pageScale="1" pageWidth="826" pageHeight="1169" background="none" math="0" shadow="0">
      <root>
        <mxCell id="0" />
        <mxCell id="1" parent="0" />
        <mxCell id="2" value="&lt;p style=&quot;margin: 0px; margin-top: 4px; text-align: center; text-decoration: underline;&quot;&gt;&lt;strong&gt;Processo 1&lt;br&gt;&lt;/strong&gt;&lt;/p&gt;&lt;hr&gt;&lt;p style=&quot;margin: 0px; margin-left: 8px;&quot;&gt;Tensorflow, faz&amp;nbsp;&lt;br&gt;&lt;/p&gt;&lt;p style=&quot;margin: 0px; margin-left: 8px;&quot;&gt;calculo e&amp;nbsp;&lt;/p&gt;&lt;p style=&quot;margin: 0px; margin-left: 8px;&quot;&gt;previsão&lt;/p&gt;" style="verticalAlign=middle;align=center;overflow=fill;fontSize=12;fontFamily=Helvetica;html=1;rounded=1;fontStyle=1;strokeWidth=3;fillColor=#E6FFCC" parent="1" vertex="1">
          <mxGeometry x="230" y="358" width="110" height="90" as="geometry" />
        </mxCell>
        <mxCell id="3" value="Cadastro de produtos" style="whiteSpace=wrap;align=center;verticalAlign=middle;fontStyle=1;strokeWidth=3;fillColor=#FFFFCC" parent="1" vertex="1">
          <mxGeometry x="240" y="248" width="90" height="60" as="geometry" />
        </mxCell>
        <mxCell id="4" value="dados adicionais" style="whiteSpace=wrap;align=center;verticalAlign=middle;fontStyle=1;strokeWidth=3;fillColor=#FFFFCC" parent="1" vertex="1">
          <mxGeometry x="34" y="373" width="90" height="60" as="geometry" />
        </mxCell>
        <mxCell id="5" value="CONTROLE E PROCESSO" style="shape=process;whiteSpace=wrap;align=center;verticalAlign=middle;size=0.0475;fontStyle=1;strokeWidth=3;fillColor=#FFCCCC" parent="1" vertex="1">
          <mxGeometry x="194.99999999999991" y="513" width="400" height="50" as="geometry" />
        </mxCell>
        <mxCell id="6" value="&lt;p style=&quot;margin: 0px; margin-top: 4px; text-align: center; text-decoration: underline;&quot;&gt;&lt;strong&gt;Processo 2&lt;br&gt;&lt;/strong&gt;&lt;/p&gt;&lt;hr&gt;&lt;p style=&quot;margin: 0px; margin-left: 8px;&quot;&gt;Usuario&amp;nbsp;&lt;/p&gt;&lt;p style=&quot;margin: 0px; margin-left: 8px;&quot;&gt;recebe&lt;/p&gt;&lt;p style=&quot;margin: 0px; margin-left: 8px;&quot;&gt;resultado&lt;/p&gt;" style="verticalAlign=middle;align=center;overflow=fill;fontSize=12;fontFamily=Helvetica;html=1;rounded=1;fontStyle=1;strokeWidth=3;fillColor=#E6FFCC" parent="1" vertex="1">
          <mxGeometry x="384" y="268" width="110" height="90" as="geometry" />
        </mxCell>
        <mxCell id="7" value="&lt;p style=&quot;margin: 0px; margin-top: 4px; text-align: center; text-decoration: underline;&quot;&gt;&lt;strong&gt;&lt;strong&gt;Processo 4&lt;/strong&gt;&lt;br&gt;&lt;/strong&gt;&lt;/p&gt;&lt;hr&gt;&lt;p style=&quot;margin: 0px; margin-left: 8px;&quot;&gt;&lt;br&gt;&lt;/p&gt;&lt;p style=&quot;margin: 0px; margin-left: 8px;&quot;&gt;Em planejamento&lt;/p&gt;" style="verticalAlign=middle;align=center;overflow=fill;fontSize=12;fontFamily=Helvetica;html=1;rounded=1;fontStyle=1;strokeWidth=3;fillColor=#E6FFCC" parent="1" vertex="1">
          <mxGeometry x="862" y="507" width="110" height="90" as="geometry" />
        </mxCell>
        <mxCell id="8" value="&lt;p style=&quot;margin: 0px; margin-top: 4px; text-align: center; text-decoration: underline;&quot;&gt;&lt;strong&gt;&lt;strong&gt;Processo 3&lt;/strong&gt;&lt;br&gt;&lt;/strong&gt;&lt;/p&gt;&lt;hr&gt;&lt;p style=&quot;margin: 0px; margin-left: 8px;&quot;&gt;Informação é&lt;/p&gt;&lt;p style=&quot;margin: 0px; margin-left: 8px;&quot;&gt;validada&lt;/p&gt;" style="verticalAlign=middle;align=center;overflow=fill;fontSize=12;fontFamily=Helvetica;html=1;rounded=1;fontStyle=1;strokeWidth=3;fillColor=#E6FFCC" parent="1" vertex="1">
          <mxGeometry x="554" y="363" width="110" height="90" as="geometry" />
        </mxCell>
        <mxCell id="12" value="Gerenciamento" style="whiteSpace=wrap;align=center;verticalAlign=middle;fontStyle=1;strokeWidth=3;fillColor=#FFFFCC" parent="1" vertex="1">
          <mxGeometry x="685" y="182.00000000000003" width="90" height="60" as="geometry" />
        </mxCell>
        <mxCell id="36" value="" style="edgeStyle=none;noEdgeStyle=1;strokeColor=#990000;strokeWidth=2" parent="1" source="3" target="2" edge="1">
          <mxGeometry width="100" height="100" relative="1" as="geometry">
            <mxPoint x="14" y="372" as="sourcePoint" />
            <mxPoint x="114" y="272" as="targetPoint" />
          </mxGeometry>
        </mxCell>
        <mxCell id="37" value="" style="edgeStyle=none;noEdgeStyle=1;strokeColor=#990000;strokeWidth=2" parent="1" source="4" target="2" edge="1">
          <mxGeometry width="100" height="100" relative="1" as="geometry">
            <mxPoint x="274" y="312" as="sourcePoint" />
            <mxPoint x="374" y="212" as="targetPoint" />
          </mxGeometry>
        </mxCell>
        <mxCell id="58" value="" style="edgeStyle=elbowEdgeStyle;elbow=horizontal;strokeColor=#990000;strokeWidth=2;exitX=1.012;exitY=0.604;exitDx=0;exitDy=0;exitPerimeter=0;" parent="1" source="2" target="6" edge="1">
          <mxGeometry width="100" height="100" relative="1" as="geometry">
            <mxPoint x="374" y="492" as="sourcePoint" />
            <mxPoint x="474" y="392" as="targetPoint" />
            <Array as="points">
              <mxPoint x="434" y="432" />
            </Array>
          </mxGeometry>
        </mxCell>
        <mxCell id="65" value="" style="edgeStyle=elbowEdgeStyle;elbow=horizontal;strokeColor=#990000;strokeWidth=2" parent="1" source="6" target="12" edge="1">
          <mxGeometry width="100" height="100" relative="1" as="geometry">
            <mxPoint x="254" y="302.0000000000001" as="sourcePoint" />
            <mxPoint x="354" y="202.0000000000001" as="targetPoint" />
            <Array as="points">
              <mxPoint x="439" y="262" />
            </Array>
          </mxGeometry>
        </mxCell>
        <mxCell id="66" value="" style="edgeStyle=elbowEdgeStyle;elbow=vertical;entryX=0.25;entryY=1;strokeColor=#990000;strokeWidth=2" parent="1" source="8" target="12" edge="1">
          <mxGeometry width="100" height="100" relative="1" as="geometry">
            <mxPoint x="524" y="372" as="sourcePoint" />
            <mxPoint x="624" y="272" as="targetPoint" />
          </mxGeometry>
        </mxCell>
        <mxCell id="68" value="" style="edgeStyle=elbowEdgeStyle;elbow=horizontal;strokeColor=#990000;strokeWidth=2" parent="1" source="8" target="5" edge="1">
          <mxGeometry width="100" height="100" relative="1" as="geometry">
            <mxPoint x="564" y="502" as="sourcePoint" />
            <mxPoint x="504" y="372" as="targetPoint" />
            <Array as="points">
              <mxPoint x="564" y="482" />
            </Array>
          </mxGeometry>
        </mxCell>
        <mxCell id="69" value="" style="edgeStyle=segmentEdgeStyle;strokeColor=#990000;strokeWidth=2" parent="1" source="5" target="8" edge="1">
          <mxGeometry width="100" height="100" relative="1" as="geometry">
            <mxPoint x="334" y="482" as="sourcePoint" />
            <mxPoint x="434" y="382" as="targetPoint" />
            <Array as="points">
              <mxPoint x="514" y="408" />
            </Array>
          </mxGeometry>
        </mxCell>
        <mxCell id="XjQjnVsAGjfm6VWD6RPQ-98" value="" style="edgeStyle=elbowEdgeStyle;elbow=horizontal;strokeColor=#990000;strokeWidth=2;entryX=0.5;entryY=0;entryDx=0;entryDy=0;exitX=0.5;exitY=1;exitDx=0;exitDy=0;" edge="1" parent="1" source="12" target="XjQjnVsAGjfm6VWD6RPQ-100">
          <mxGeometry width="100" height="100" relative="1" as="geometry">
            <mxPoint x="730" y="242" as="sourcePoint" />
            <mxPoint x="730" y="332" as="targetPoint" />
          </mxGeometry>
        </mxCell>
        <mxCell id="XjQjnVsAGjfm6VWD6RPQ-105" value="" style="edgeStyle=none;curved=1;rounded=0;orthogonalLoop=1;jettySize=auto;html=1;fontSize=12;startSize=8;endSize=8;" edge="1" parent="1" source="XjQjnVsAGjfm6VWD6RPQ-99" target="XjQjnVsAGjfm6VWD6RPQ-103">
          <mxGeometry relative="1" as="geometry" />
        </mxCell>
        <mxCell id="XjQjnVsAGjfm6VWD6RPQ-111" value="" style="edgeStyle=none;curved=1;rounded=0;orthogonalLoop=1;jettySize=auto;html=1;fontSize=12;startSize=8;endSize=8;entryX=0.5;entryY=0;entryDx=0;entryDy=0;" edge="1" parent="1" target="XjQjnVsAGjfm6VWD6RPQ-109">
          <mxGeometry relative="1" as="geometry">
            <mxPoint x="730.8869088416725" y="426.00205620287863" as="sourcePoint" />
            <mxPoint x="732.3018867924529" y="451" as="targetPoint" />
          </mxGeometry>
        </mxCell>
        <mxCell id="XjQjnVsAGjfm6VWD6RPQ-100" value="" style="rhombus;whiteSpace=wrap;html=1;fontSize=16;" vertex="1" parent="1">
          <mxGeometry x="678" y="319" width="104" height="108" as="geometry" />
        </mxCell>
        <mxCell id="XjQjnVsAGjfm6VWD6RPQ-103" value="" style="rhombus;whiteSpace=wrap;html=1;fontSize=16;" vertex="1" parent="1">
          <mxGeometry x="862" y="318" width="104" height="108" as="geometry" />
        </mxCell>
        <mxCell id="XjQjnVsAGjfm6VWD6RPQ-99" value="manutenção" style="text;html=1;strokeColor=none;fillColor=none;align=center;verticalAlign=middle;whiteSpace=wrap;rounded=0;fontSize=16;" vertex="1" parent="1">
          <mxGeometry x="700" y="357" width="60" height="30" as="geometry" />
        </mxCell>
        <mxCell id="XjQjnVsAGjfm6VWD6RPQ-106" value="sim" style="text;html=1;strokeColor=none;fillColor=none;align=center;verticalAlign=middle;whiteSpace=wrap;rounded=0;fontSize=16;" vertex="1" parent="1">
          <mxGeometry x="782" y="343" width="60" height="30" as="geometry" />
        </mxCell>
        <mxCell id="XjQjnVsAGjfm6VWD6RPQ-107" value="realocado" style="text;html=1;strokeColor=none;fillColor=none;align=center;verticalAlign=middle;whiteSpace=wrap;rounded=0;fontSize=16;" vertex="1" parent="1">
          <mxGeometry x="884" y="357" width="60" height="30" as="geometry" />
        </mxCell>
        <mxCell id="XjQjnVsAGjfm6VWD6RPQ-109" value="" style="rounded=1;whiteSpace=wrap;html=1;fontSize=16;" vertex="1" parent="1">
          <mxGeometry x="675" y="472" width="120" height="57" as="geometry" />
        </mxCell>
        <mxCell id="XjQjnVsAGjfm6VWD6RPQ-112" value="Descartado" style="text;html=1;strokeColor=none;fillColor=none;align=center;verticalAlign=middle;whiteSpace=wrap;rounded=0;fontSize=16;" vertex="1" parent="1">
          <mxGeometry x="706" y="488" width="60" height="30" as="geometry" />
        </mxCell>
        <mxCell id="XjQjnVsAGjfm6VWD6RPQ-113" value="" style="rounded=1;whiteSpace=wrap;html=1;fontSize=16;" vertex="1" parent="1">
          <mxGeometry x="1060" y="342" width="120" height="60" as="geometry" />
        </mxCell>
        <mxCell id="XjQjnVsAGjfm6VWD6RPQ-114" value="Descartado" style="text;html=1;strokeColor=none;fillColor=none;align=center;verticalAlign=middle;whiteSpace=wrap;rounded=0;fontSize=16;" vertex="1" parent="1">
          <mxGeometry x="1087" y="359" width="60" height="30" as="geometry" />
        </mxCell>
        <mxCell id="XjQjnVsAGjfm6VWD6RPQ-115" value="" style="endArrow=classic;html=1;rounded=0;fontSize=12;startSize=8;endSize=8;curved=1;exitX=1;exitY=0.5;exitDx=0;exitDy=0;entryX=0;entryY=0.5;entryDx=0;entryDy=0;" edge="1" parent="1" source="XjQjnVsAGjfm6VWD6RPQ-103">
          <mxGeometry width="50" height="50" relative="1" as="geometry">
            <mxPoint x="994" y="472" as="sourcePoint" />
            <mxPoint x="1062" y="372" as="targetPoint" />
          </mxGeometry>
        </mxCell>
        <mxCell id="XjQjnVsAGjfm6VWD6RPQ-116" value="não" style="text;html=1;strokeColor=none;fillColor=none;align=center;verticalAlign=middle;whiteSpace=wrap;rounded=0;fontSize=16;" vertex="1" parent="1">
          <mxGeometry x="979" y="341" width="60" height="30" as="geometry" />
        </mxCell>
        <mxCell id="XjQjnVsAGjfm6VWD6RPQ-117" value="" style="shape=umlActor;verticalLabelPosition=bottom;verticalAlign=top;html=1;outlineConnect=0;fontSize=16;" vertex="1" parent="1">
          <mxGeometry x="719" y="136" width="15" height="40" as="geometry" />
        </mxCell>
        <mxCell id="XjQjnVsAGjfm6VWD6RPQ-119" value="" style="shape=umlActor;verticalLabelPosition=bottom;verticalAlign=top;html=1;outlineConnect=0;fontSize=16;" vertex="1" parent="1">
          <mxGeometry x="274" y="202" width="15" height="40" as="geometry" />
        </mxCell>
        <mxCell id="XjQjnVsAGjfm6VWD6RPQ-124" value="&lt;h1&gt;Machine Learning&lt;/h1&gt;&lt;p&gt;Planejamento para o controle de ativos do sistema Lingo Kennel, através da inteligencia do Machine Learning&lt;/p&gt;" style="text;html=1;strokeColor=none;fillColor=none;spacing=5;spacingTop=-20;whiteSpace=wrap;overflow=hidden;rounded=0;fontSize=16;" vertex="1" parent="1">
          <mxGeometry x="30" y="36" width="290" height="200" as="geometry" />
        </mxCell>
        <mxCell id="XjQjnVsAGjfm6VWD6RPQ-125" value="" style="edgeStyle=elbowEdgeStyle;elbow=horizontal;strokeColor=#990000;strokeWidth=2;entryX=0.5;entryY=0;entryDx=0;entryDy=0;exitX=0.5;exitY=1;exitDx=0;exitDy=0;" edge="1" parent="1">
          <mxGeometry width="100" height="100" relative="1" as="geometry">
            <mxPoint x="914.29" y="427" as="sourcePoint" />
            <mxPoint x="914.29" y="504" as="targetPoint" />
          </mxGeometry>
        </mxCell>
      </root>
    </mxGraphModel>
  </diagram>
</mxfile>
